HIERARCHY
ROOT Hips
{
 OFFSET 0.000000 0.000000 0.000000
 CHANNELS 6 Xposition Yposition Zposition Yrotation Xrotation Zrotation
 JOINT Chest
 {
  OFFSET 0.000000 9.585900 0.002600
  CHANNELS 3 Yrotation Xrotation Zrotation
  JOINT Chest2
  {
   OFFSET 0.000000 9.601200 -0.005300
   CHANNELS 3 Yrotation Xrotation Zrotation
   JOINT Chest3
   {
    OFFSET 0.000000 9.561800 0.000000
    CHANNELS 3 Yrotation Xrotation Zrotation
    JOINT Chest4
    {
     OFFSET 0.000000 9.552100 0.000000
     CHANNELS 3 Yrotation Xrotation Zrotation
     JOINT Neck
     {
      OFFSET 0.000000 14.453000 0.000000
      CHANNELS 3 Yrotation Xrotation Zrotation
      JOINT Head
      {
       OFFSET 0.000000 8.936500 -0.011300
       CHANNELS 3 Yrotation Xrotation Zrotation
       End Site
       {
        OFFSET 0.000000 17.073600 -0.006000
       }
      }
     }
     JOINT RightCollar
     {
      OFFSET -2.921100 9.558500 0.000000
      CHANNELS 3 Yrotation Xrotation Zrotation
      JOINT RightShoulder
      {
       OFFSET -13.519700 0.000000 0.000000
       CHANNELS 3 Yrotation Xrotation Zrotation
       JOINT RightElbow
       {
        OFFSET 0.000000 -29.696600 0.000000
        CHANNELS 3 Yrotation Xrotation Zrotation
        JOINT RightWrist
        {
         OFFSET 0.000000 -24.004700 0.000000
         CHANNELS 3 Yrotation Xrotation Zrotation
         End Site
         {
          OFFSET 0.000000 -17.728500 0.000000
         }
        }
       }
      }
     }
     JOINT LeftCollar
     {
      OFFSET 2.921100 9.558500 0.000000
      CHANNELS 3 Yrotation Xrotation Zrotation
      JOINT LeftShoulder
      {
       OFFSET 13.519700 0.000000 0.000000
       CHANNELS 3 Yrotation Xrotation Zrotation
       JOINT LeftElbow
       {
        OFFSET 0.000000 -29.696600 0.000000
        CHANNELS 3 Yrotation Xrotation Zrotation
        JOINT LeftWrist
        {
         OFFSET 0.000000 -24.004700 0.000000
         CHANNELS 3 Yrotation Xrotation Zrotation
         End Site
         {
          OFFSET 0.000000 -17.728500 0.000000
         }
        }
       }
      }
     }
    }
   }
  }
 }
 JOINT RightHip
 {
  OFFSET -7.771700 -0.012900 -0.001300
  CHANNELS 3 Yrotation Xrotation Zrotation
  JOINT RightKnee
  {
   OFFSET 0.000000 -40.869800 0.001200
   CHANNELS 3 Yrotation Xrotation Zrotation
   JOINT RightAnkle
   {
    OFFSET 0.000000 -39.717900 0.002100
    CHANNELS 3 Yrotation Xrotation Zrotation
    JOINT RightToe
    {
     OFFSET 0.000000 -4.965400 11.033500
     CHANNELS 3 Yrotation Xrotation Zrotation
     End Site
     {
      OFFSET 0.000000 -1.423100 5.872300
     }
    }
   }
  }
 }
 JOINT LeftHip
 {
  OFFSET 7.771700 -0.012900 -0.001300
  CHANNELS 3 Yrotation Xrotation Zrotation
  JOINT LeftKnee
  {
   OFFSET 0.000000 -40.869800 0.001200
   CHANNELS 3 Yrotation Xrotation Zrotation
   JOINT LeftAnkle
   {
    OFFSET 0.000000 -39.717900 0.002100
    CHANNELS 3 Yrotation Xrotation Zrotation
    JOINT LeftToe
    {
     OFFSET 0.000000 -4.965400 11.033500
     CHANNELS 3 Yrotation Xrotation Zrotation
     End Site
     {
      OFFSET 0.000000 -1.423100 5.872300
     }
    }
   }
  }
 }
}
MOTION
Frames: 9
Frame Time: 0.008333
0.000000 85.388000 0.000000 0.000000 -5.767877 0.000000 0.000000 11.653817 0.000000 0.000000 -5.885947 0.000000 0.000000 -0.000000 0.000000 0.000000 -0.000000 0.000000 0.000000 12.528835 0.000000 0.000000 0.711642 0.000000 0.000000 -0.000000 0.000000 0.000000 0.000000 -90.000000 0.000000 -2.309062 0.000000 0.000000 2.309062 0.000000 0.000000 -0.000000 0.000000 0.000000 -0.000000 90.000000 0.000000 -2.309062 0.000000 0.000000 2.309062 0.000000 0.000000 8.520406 0.000000 0.000000 1.905762 0.000000 -0.000000 -4.658285 0.000000 0.000000 -0.000000 0.000000 0.000000 8.520406 0.000000 0.000000 1.905762 0.000000 -0.000000 -4.658285 0.000000 0.000000 -0.000000 0.000000
-7.001440 55.663006 23.423312 -178.540053 -26.864195 -10.493748 0.846694 14.687076 6.083512 0.285809 8.453267 2.281279 0.411663 10.564248 2.866280 0.285804 8.453173 2.281276 2.754976 21.941023 -0.146248 2.992733 -2.256262 -0.786712 -0.383629 -3.110638 -5.661354 -0.678735 -17.230905 0.714595 73.534320 -45.339392 -51.086249 23.144998 15.148854 -7.258182 -11.999851 2.631131 -1.408139 4.185122 -5.580555 -0.141356 -120.920988 -71.940726 127.766526 14.391950 -17.506373 0.179384 -19.456829 -37.855770 9.085015 23.152624 86.132028 20.464006 0.877996 -17.953139 -1.649561 -0.071268 0.537776 -0.016467 -17.042086 -51.087801 15.889182 170.132827 79.045270 165.194748 -1.114735 -15.788360 1.969076 -0.792117 -2.833338 -0.359735
-7.010039 55.659784 23.421167 -178.521678 -26.849587 -10.501450 0.811927 14.578758 6.048333 0.262782 8.381086 2.267773 0.382132 10.474212 2.848608 0.262809 8.381045 2.267762 2.855566 21.956521 -0.098952 3.090812 -2.234880 -0.759027 -0.311197 -3.113356 -5.559900 -0.708278 -17.187312 0.680637 73.332029 -45.199258 -50.632503 23.137617 15.088983 -7.213876 -11.954639 2.608563 -1.490684 4.145558 -5.467705 -0.041763 -120.203044 -71.967172 127.000088 14.410803 -17.513122 0.219810 -19.449505 -37.874673 9.081854 22.978664 86.149287 20.287915 0.866243 -17.959409 -1.619846 -0.074343 0.536869 -0.019521 -17.046872 -51.091550 15.898979 170.195948 79.054028 165.245120 -1.140221 -15.828876 1.991467 -0.773303 -2.800130 -0.352130
-7.017881 55.657023 23.416552 -178.517818 -26.854082 -10.514689 0.801757 14.534693 6.042588 0.226313 8.261597 2.238162 0.350549 10.386336 2.830577 0.238257 8.310582 2.254014 2.953341 21.971853 -0.059166 3.187597 -2.213645 -0.738696 -0.226875 -3.111325 -5.468894 -0.747478 -17.161427 0.643496 73.123735 -45.072219 -50.155619 23.113398 15.034435 -7.191263 -11.891277 2.568978 -1.573098 4.109713 -5.356620 0.058024 -119.455872 -72.011929 126.192220 14.447522 -17.495710 0.296531 -19.450436 -37.870074 9.112277 22.523170 86.170479 19.799601 0.857620 -17.965722 -1.574166 -0.074193 0.536481 -0.024137 -17.058387 -51.083536 15.925127 170.266487 79.046794 165.290595 -1.123060 -15.838229 2.021939 -0.797796 -2.801648 -0.360237
-7.027940 55.651582 23.414439 -178.509752 -26.841681 -10.520199 0.778755 14.475327 6.025567 0.185877 8.145621 2.208707 0.317663 10.300928 2.812612 0.212704 8.242120 2.240331 3.038098 21.967353 -0.034177 3.273522 -2.215984 -0.731302 -0.130893 -3.110028 -5.388508 -0.789989 -17.144389 0.602986 72.903119 -44.961361 -49.661284 23.089344 14.978864 -7.177439 -11.813900 2.512275 -1.653930 4.076588 -5.251606 0.157507 -118.676725 -72.077496 125.338793 14.451772 -17.525466 0.304357 -19.426860 -37.894556 9.111882 22.311259 86.194458 19.584443 0.848430 -17.968285 -1.539308 -0.072760 0.532248 -0.023586 -17.060880 -51.091426 15.936345 170.336336 79.049263 165.347739 -1.129882 -15.866371 2.033648 -0.796936 -2.778353 -0.349688
-7.038235 55.644682 23.413396 -178.501050 -26.825476 -10.525829 0.709369 14.297728 5.959438 0.180218 8.152559 2.219243 0.285276 10.218930 2.794841 0.187426 8.176465 2.226726 3.105090 21.932278 -0.026842 3.343872 -2.254534 -0.738794 -0.028651 -3.113368 -5.316931 -0.823633 -17.131079 0.557603 72.660635 -44.863068 -49.151143 23.062054 14.929290 -7.190318 -11.729537 2.440524 -1.730495 4.043445 -5.156119 0.252849 -117.860226 -72.159620 124.440980 14.455027 -17.558200 0.308504 -19.414208 -37.923826 9.106711 22.300303 86.213739 19.575771 0.841346 -17.972195 -1.516511 -0.071299 0.530375 -0.023449 -17.071761 -51.098210 15.965301 170.476125 79.057021 165.465113 -1.156950 -15.907303 2.051737 -0.773696 -2.741515 -0.336938
-7.051066 55.634970 23.415655 -178.478855 -26.788776 -10.520864 0.636290 14.153028 5.898596 0.163189 8.113876 2.213515 0.254187 10.140854 2.777534 0.163123 8.113926 2.213490 3.156353 21.868915 -0.036388 3.400692 -2.326544 -0.760735 0.073377 -3.124433 -5.253697 -0.842317 -17.121946 0.505258 72.393514 -44.774535 -48.624750 23.028225 14.888403 -7.238907 -11.643362 2.352233 -1.798433 4.008939 -5.067817 0.335925 -117.000071 -72.275550 123.537467 14.453678 -17.596943 0.280095 -19.414590 -37.981110 9.090646 22.350689 86.239064 19.621065 0.849398 -17.976791 -1.500228 -0.069598 0.530156 -0.022464 -17.095534 -51.131031 15.973034 170.553697 79.058362 165.526069 -1.198443 -15.959703 2.055222 -0.738774 -2.690409 -0.315587
-7.061299 55.626959 23.414985 -178.475905 -26.782721 -10.521498 0.600950 14.062514 5.865517 0.139480 8.054415 2.201396 0.223814 10.066661 2.761684 0.139431 8.054445 2.201428 3.198790 21.790288 -0.062431 3.451666 -2.416518 -0.798389 0.168429 -3.143243 -5.198521 -0.842760 -17.121201 0.444271 72.104120 -44.691679 -48.082150 22.987241 14.849554 -7.318175 -11.561916 2.241702 -1.857977 3.979769 -4.977938 0.405986 -116.064233 -72.355420 122.493818 14.484217 -17.640494 0.339120 -19.393254 -38.004616 9.095627 22.144025 86.265449 19.399956 0.837135 -17.982124 -1.465360 -0.069671 0.529981 -0.020437 -17.104562 -51.132426 15.989308 170.625116 79.059747 165.580793 -1.219352 -15.989589 2.061706 -0.721580 -2.663520 -0.305723
-7.071113 55.618946 23.414684 -178.476522 -26.782379 -10.520683 0.570675 13.978870 5.835462 0.115879 7.997489 2.191031 0.193721 9.995662 2.748065 0.115893 7.997466 2.191110 3.237393 21.715165 -0.105337 3.502493 -2.502225 -0.853369 0.254902 -3.164025 -5.153483 -0.824660 -17.132959 0.375477 71.792831 -44.610756 -47.518187 22.938089 14.808255 -7.422954 -11.488311 2.112141 -1.913998 3.960292 -4.883424 0.466558 -115.039135 -72.436080 121.372936 14.509682 -17.773587 0.378441 -19.365422 -38.024639 9.098172 21.910871 86.292983 19.154156 0.828870 -17.985726 -1.436899 -0.070968 0.528864 -0.011741 -17.106509 -51.130707 16.003628 170.698469 79.058508 165.634033 -1.229299 -16.013111 2.076082 -0.716431 -2.643865 -0.302807
